<svg width="64" height="42" xmlns="http://www.w3.org/2000/svg">
  <g fill="#9B9B9B" fill-rule="evenodd">
    <path d="M0 1h12.583c5.733 0 9.895.816 12.485 2.447 2.59 1.632 3.886 4.227 3.886 7.785 0 2.415-.567 4.397-1.701 5.946-1.134 1.548-2.641 2.48-4.522 2.793v.276c2.563.572 4.411 1.64 5.545 3.208 1.134 1.567 1.7 3.65 1.7 6.25 0 3.687-1.331 6.563-3.995 8.628-2.664 2.065-6.282 3.097-10.854 3.097H0V1zm8.573 16.012h4.977c2.323 0 4.006-.36 5.047-1.079 1.042-.719 1.563-1.908 1.563-3.567 0-1.549-.567-2.66-1.701-3.333-1.134-.672-2.927-1.009-5.379-1.009H8.573v8.988zm0 6.802v10.537h5.586c2.36 0 4.102-.452 5.226-1.355 1.125-.904 1.687-2.287 1.687-4.149 0-3.355-2.396-5.033-7.19-5.033h-5.31zm41.619-7.88c-1.789 0-3.19.566-4.204 1.7-1.014 1.134-1.594 2.742-1.742 4.825h11.836c-.037-2.083-.58-3.691-1.632-4.825-1.05-1.134-2.47-1.7-4.258-1.7zm1.189 26.049c-4.978 0-8.868-1.373-11.67-4.12-2.802-2.747-4.203-6.637-4.203-11.67 0-5.18 1.295-9.186 3.885-12.016s6.171-4.245 10.743-4.245c4.37 0 7.771 1.245 10.205 3.733 2.433 2.49 3.65 5.928 3.65 10.315v4.093H44.053c.092 2.397.802 4.268 2.129 5.614s3.19 2.019 5.586 2.019c1.862 0 3.623-.194 5.282-.581 1.66-.387 3.392-1.005 5.199-1.853v6.526a19.805 19.805 0 0 1-4.729 1.646c-1.678.36-3.724.539-6.14.539zM38 0h22.654v5.664H38z"/>
  </g>
</svg>
