<svg width="50" height="45" xmlns="http://www.w3.org/2000/svg">
  <path d="M11.713 44.308H.901V12.976h10.812v31.332zM.624 5.178c0-1.622.452-2.83 1.355-3.623C2.883.762 4.34.366 6.35.366c2.01 0 3.475.406 4.397 1.217.921.811 1.382 2.01 1.382 3.595 0 3.17-1.926 4.756-5.78 4.756C2.533 9.934.625 8.35.625 5.178zm38.411 39.13v-17.09c0-2.083-.3-3.655-.898-4.715-.6-1.06-1.563-1.59-2.89-1.59-1.825 0-3.143.728-3.955 2.185-.81 1.456-1.216 3.954-1.216 7.494v13.716H19.263V12.976h8.158l1.355 3.872h.636c.922-1.475 2.198-2.581 3.83-3.319 1.632-.737 3.507-1.106 5.628-1.106 3.465 0 6.162 1.005 8.088 3.014 1.927 2.01 2.89 4.84 2.89 8.49v20.381H39.035z" fill="#9B9B9B" fill-rule="evenodd"/>
</svg>
