<svg width="504" height="101" xmlns="http://www.w3.org/2000/svg">
  <g fill="none" fill-rule="evenodd">
    <path d="M159.861 92.092l-.418 3.344h2.66l-.152 1.634h-2.698l-.418 3.287h-1.596l.399-3.287h-3.363l-.418 3.287h-1.596l.399-3.287H150l.152-1.634h2.717l.399-3.344h-2.641l.152-1.634h2.698l.418-3.401h1.615l-.418 3.401h3.363l.418-3.401h1.615l-.418 3.401h2.641l-.133 1.634h-2.717zm-1.615 0h-3.363l-.418 3.344h3.382l.399-3.344zM169.836 87c3.629 0 5.643 2.394 5.643 6.707s-2.014 6.707-5.643 6.707c-3.648 0-5.662-2.394-5.662-6.707S166.188 87 169.836 87zm0 1.767c-2.242 0-3.363 1.558-3.363 4.94 0 3.363 1.121 4.94 3.363 4.94 2.223 0 3.344-1.577 3.344-4.94 0-3.382-1.121-4.94-3.344-4.94zm16.929 0v-1.71h-9.671v3.876h1.976l.019-1.862h5.168l-5.168 11.286h2.375l5.301-11.59zm7.03-1.767c3.629 0 5.643 2.394 5.643 6.707s-2.014 6.707-5.643 6.707c-3.648 0-5.662-2.394-5.662-6.707S190.147 87 193.795 87zm0 1.767c-2.242 0-3.363 1.558-3.363 4.94 0 3.363 1.121 4.94 3.363 4.94 2.223 0 3.344-1.577 3.344-4.94 0-3.382-1.121-4.94-3.344-4.94zm16.929 0v-1.71h-9.671v3.876h1.976l.019-1.862h5.168l-5.168 11.286h2.375l5.301-11.59zm7.03-1.767c3.629 0 5.643 2.394 5.643 6.707s-2.014 6.707-5.643 6.707c-3.648 0-5.662-2.394-5.662-6.707S214.106 87 217.754 87zm0 1.767c-2.242 0-3.363 1.558-3.363 4.94 0 3.363 1.121 4.94 3.363 4.94 2.223 0 3.344-1.577 3.344-4.94 0-3.382-1.121-4.94-3.344-4.94zm16.929 0v-1.71h-9.671v3.876h1.976l.019-1.862h5.168l-5.168 11.286h2.375l5.301-11.59zM290.861 92.13l-.418 3.344h2.66l-.152 1.634h-2.698l-.418 3.287h-1.596l.399-3.287h-3.363l-.418 3.287h-1.596l.399-3.287H281l.152-1.634h2.717l.399-3.344h-2.641l.152-1.634h2.698l.418-3.401h1.615l-.418 3.401h3.363l.418-3.401h1.615l-.418 3.401h2.641l-.133 1.634h-2.717zm-1.615 0h-3.363l-.418 3.344h3.382l.399-3.344zm16.264-3.021v-2.014h-9.5v13.3h9.728v-2.014h-7.486v-3.667h6.498V92.7h-6.498v-3.591h7.258zM313.376 87c1.311 0 2.888.399 3.971 1.007l-.874 1.691c-.817-.532-1.938-.836-2.945-.836-2.584 0-3.781 1.938-3.705 4.807.703-1.235 1.957-1.881 3.629-1.881 2.66 0 4.275 1.653 4.275 4.237 0 2.755-1.843 4.465-4.674 4.465-3.363 0-5.415-2.394-5.415-6.479 0-4.237 2.223-7.011 5.738-7.011zm-.342 6.555c-1.805 0-2.869 1.159-2.85 2.527-.019 1.159.836 2.47 2.755 2.47 1.615 0 2.698-.931 2.698-2.546 0-1.52-.988-2.451-2.603-2.451zm16.625-4.446v-2.014h-9.5v13.3h9.728v-2.014h-7.486v-3.667h6.498V92.7h-6.498v-3.591h7.258zM337.525 87c1.311 0 2.888.399 3.971 1.007l-.874 1.691c-.817-.532-1.938-.836-2.945-.836-2.584 0-3.781 1.938-3.705 4.807.703-1.235 1.957-1.881 3.629-1.881 2.66 0 4.275 1.653 4.275 4.237 0 2.755-1.843 4.465-4.674 4.465-3.363 0-5.415-2.394-5.415-6.479 0-4.237 2.223-7.011 5.738-7.011zm-.342 6.555c-1.805 0-2.869 1.159-2.85 2.527-.019 1.159.836 2.47 2.755 2.47 1.615 0 2.698-.931 2.698-2.546 0-1.52-.988-2.451-2.603-2.451zm16.625-4.446v-2.014h-9.5v13.3h9.728v-2.014h-7.486v-3.667h6.498V92.7h-6.498v-3.591h7.258zM361.674 87c1.311 0 2.888.399 3.971 1.007l-.874 1.691c-.817-.532-1.938-.836-2.945-.836-2.584 0-3.781 1.938-3.705 4.807.703-1.235 1.957-1.881 3.629-1.881 2.66 0 4.275 1.653 4.275 4.237 0 2.755-1.843 4.465-4.674 4.465-3.363 0-5.415-2.394-5.415-6.479 0-4.237 2.223-7.011 5.738-7.011zm-.342 6.555c-1.805 0-2.869 1.159-2.85 2.527-.019 1.159.836 2.47 2.755 2.47 1.615 0 2.698-.931 2.698-2.546 0-1.52-.988-2.451-2.603-2.451zM422.861 92.13l-.418 3.344h2.66l-.152 1.634h-2.698l-.418 3.287h-1.596l.399-3.287h-3.363l-.418 3.287h-1.596l.399-3.287H413l.152-1.634h2.717l.399-3.344h-2.641l.152-1.634h2.698l.418-3.401h1.615l-.418 3.401h3.363l.418-3.401h1.615l-.418 3.401h2.641l-.133 1.634h-2.717zm-1.615 0h-3.363l-.418 3.344h3.382l.399-3.344zm6.764-5.035h5.776c2.755 0 4.465 1.254 4.465 3.325 0 1.501-.893 2.622-2.337 2.964 1.786.304 2.85 1.577 2.85 3.363 0 2.28-1.843 3.648-4.845 3.648h-5.909v-13.3zm2.242 1.995v3.515h3.42c1.425 0 2.28-.665 2.28-1.786s-.855-1.729-2.28-1.729h-3.42zm0 5.491V98.4h3.42c1.748 0 2.793-.684 2.793-1.938 0-1.178-1.045-1.881-2.793-1.881h-3.42zm14.573 5.909c-1.311 0-2.888-.399-3.971-1.007l.874-1.691c.817.532 1.938.836 2.945.836 2.584 0 3.781-1.938 3.705-4.807-.703 1.235-1.957 1.881-3.629 1.881-2.66 0-4.275-1.653-4.275-4.237 0-2.755 1.843-4.465 4.674-4.465 3.363 0 5.415 2.394 5.415 6.479 0 4.237-2.223 7.011-5.738 7.011zm.342-6.555c1.805 0 2.869-1.159 2.85-2.527.019-1.159-.836-2.47-2.755-2.47-1.615 0-2.698.931-2.698 2.546 0 1.52.988 2.451 2.603 2.451zm7.942-6.84h5.776c2.755 0 4.465 1.254 4.465 3.325 0 1.501-.893 2.622-2.337 2.964 1.786.304 2.85 1.577 2.85 3.363 0 2.28-1.843 3.648-4.845 3.648h-5.909v-13.3zm2.242 1.995v3.515h3.42c1.425 0 2.28-.665 2.28-1.786s-.855-1.729-2.28-1.729h-3.42zm0 5.491V98.4h3.42c1.748 0 2.793-.684 2.793-1.938 0-1.178-1.045-1.881-2.793-1.881h-3.42zm11.172-7.486h5.776c2.755 0 4.465 1.254 4.465 3.325 0 1.501-.893 2.622-2.337 2.964 1.786.304 2.85 1.577 2.85 3.363 0 2.28-1.843 3.648-4.845 3.648h-5.909v-13.3zm2.242 1.995v3.515h3.42c1.425 0 2.28-.665 2.28-1.786s-.855-1.729-2.28-1.729h-3.42zm0 5.491V98.4h3.42c1.748 0 2.793-.684 2.793-1.938 0-1.178-1.045-1.881-2.793-1.881h-3.42zm11.172-7.486h5.776c2.755 0 4.465 1.254 4.465 3.325 0 1.501-.893 2.622-2.337 2.964 1.786.304 2.85 1.577 2.85 3.363 0 2.28-1.843 3.648-4.845 3.648h-5.909v-13.3zm2.242 1.995v3.515h3.42c1.425 0 2.28-.665 2.28-1.786s-.855-1.729-2.28-1.729h-3.42zm0 5.491V98.4h3.42c1.748 0 2.793-.684 2.793-1.938 0-1.178-1.045-1.881-2.793-1.881h-3.42zm20.672-5.472v-2.014h-9.5v13.3h9.728v-2.014h-7.486v-3.667h6.498V92.7h-6.498v-3.591h7.258zM9.861 92.13l-.418 3.344h2.66l-.152 1.634H9.253l-.418 3.287H7.239l.399-3.287H4.275l-.418 3.287H2.261l.399-3.287H0l.152-1.634h2.717l.399-3.344H.627l.152-1.634h2.698l.418-3.401H5.51l-.418 3.401h3.363l.418-3.401h1.615l-.418 3.401h2.641l-.133 1.634H9.861zm-1.615 0H4.883l-.418 3.344h3.382l.399-3.344zm11.59-5.092c3.629 0 5.643 2.394 5.643 6.707s-2.014 6.707-5.643 6.707c-3.648 0-5.662-2.394-5.662-6.707s2.014-6.707 5.662-6.707zm0 1.767c-2.242 0-3.363 1.558-3.363 4.94 0 3.363 1.121 4.94 3.363 4.94 2.223 0 3.344-1.577 3.344-4.94 0-3.382-1.121-4.94-3.344-4.94zm16.929 0v-1.71h-9.671v3.876h1.976l.019-1.862h5.168l-5.168 11.286h2.375l5.301-11.59zm10.792 8.588H40.85l-1.273 3.002H37.24l5.871-13.3h2.299l5.814 13.3H48.83l-1.273-3.002zm-.855-1.995l-2.508-5.909-2.508 5.909h5.016zm11.115-8.36c3.629 0 5.643 2.394 5.643 6.707s-2.014 6.707-5.643 6.707c-3.648 0-5.662-2.394-5.662-6.707s2.014-6.707 5.662-6.707zm0 1.767c-2.242 0-3.363 1.558-3.363 4.94 0 3.363 1.121 4.94 3.363 4.94 2.223 0 3.344-1.577 3.344-4.94 0-3.382-1.121-4.94-3.344-4.94zm14.193-1.767c-3.933 0-6.992 2.907-6.992 6.688 0 3.819 3.021 6.764 6.916 6.764 1.881 0 3.8-.855 5.149-2.185l-1.33-1.482c-1.007.969-2.375 1.577-3.705 1.577-2.66 0-4.75-2.071-4.75-4.693 0-2.622 2.09-4.674 4.75-4.674 1.349 0 2.736.646 3.705 1.691l1.311-1.634c-1.292-1.273-3.173-2.052-5.054-2.052zM83.562 87c2.736 0 4.465 1.311 4.465 3.439 0 1.292-.741 2.299-1.976 2.85 1.615.532 2.641 1.767 2.641 3.382 0 2.375-1.976 3.819-5.13 3.819-3.135 0-5.111-1.444-5.111-3.781 0-1.634 1.045-2.888 2.736-3.42-1.292-.589-2.071-1.634-2.071-2.926 0-2.09 1.729-3.363 4.446-3.363zm0 1.615c-1.596 0-2.546.722-2.546 1.957s.95 1.938 2.546 1.938c1.615 0 2.546-.703 2.546-1.938 0-1.235-.931-1.957-2.546-1.957zm0 5.643c-1.881 0-2.983.817-2.983 2.204 0 1.444 1.083 2.261 2.983 2.261 1.9 0 3.002-.817 3.002-2.261 0-1.387-1.102-2.204-3.002-2.204z" fill="#070707"/>
    <ellipse fill="#07A0C8" cx="44.043" cy="34.046" rx="33.043" ry="33.046"/>
    <path fill="#B9BBBE" d="M458.731 0l33.732 67.469H425z"/>
    <path fill="#E6E6E6" d="M306 17h34.42v34.423H306z"/>
    <ellipse fill="#070707" cx="192.438" cy="34.44" rx="24.438" ry="24.44"/>
  </g>
</svg>
