<?xml version="1.0" encoding="UTF-8"?>
<svg width="700px" height="130px" viewBox="0 0 700 130" version="1.1" xmlns="http://www.w3.org/2000/svg" xmlns:xlink="http://www.w3.org/1999/xlink">
    <!-- Generator: Sketch 43.2 (39069) - http://www.bohemiancoding.com/sketch -->
    <title>Group 10</title>
    <desc>Created with Sketch.</desc>
    <defs></defs>
    <g id="Actual" stroke="none" stroke-width="1" fill="none" fill-rule="evenodd">
        <g id="Case-study" transform="translate(-350.000000, -4356.000000)">
            <g id="Group-10" transform="translate(350.000000, 4356.000000)">
                <g id="Group-7">
                    <circle id="Oval-2" fill="#F11F96" cx="664" cy="43" r="9"></circle>
                    <circle id="Oval-2-Copy" fill="#9B9B9B" cx="351.5" cy="42.5" r="35.5"></circle>
                    <circle id="Oval-2-Copy-2" fill="#070707" cx="43.5" cy="42.5" r="42.5"></circle>
                    <path d="M10.374,120.735 L9.956,124.079 L12.616,124.079 L12.464,125.713 L9.766,125.713 L9.348,129 L7.752,129 L8.151,125.713 L4.788,125.713 L4.37,129 L2.774,129 L3.173,125.713 L0.513,125.713 L0.665,124.079 L3.382,124.079 L3.781,120.735 L1.14,120.735 L1.292,119.101 L3.99,119.101 L4.408,115.7 L6.023,115.7 L5.605,119.101 L8.968,119.101 L9.386,115.7 L11.001,115.7 L10.583,119.101 L13.224,119.101 L13.091,120.735 L10.374,120.735 Z M8.759,120.735 L5.396,120.735 L4.978,124.079 L8.36,124.079 L8.759,120.735 Z M20.349,115.643 C23.978,115.643 25.992,118.037 25.992,122.35 C25.992,126.663 23.978,129.057 20.349,129.057 C16.701,129.057 14.687,126.663 14.687,122.35 C14.687,118.037 16.701,115.643 20.349,115.643 Z M20.349,117.41 C18.107,117.41 16.986,118.968 16.986,122.35 C16.986,125.713 18.107,127.29 20.349,127.29 C22.572,127.29 23.693,125.713 23.693,122.35 C23.693,118.968 22.572,117.41 20.349,117.41 Z M37.278,117.41 L37.278,115.7 L27.607,115.7 L27.607,119.576 L29.583,119.576 L29.602,117.714 L34.77,117.714 L29.602,129 L31.977,129 L37.278,117.41 Z M44.308,115.643 C47.937,115.643 49.951,118.037 49.951,122.35 C49.951,126.663 47.937,129.057 44.308,129.057 C40.66,129.057 38.646,126.663 38.646,122.35 C38.646,118.037 40.66,115.643 44.308,115.643 Z M44.308,117.41 C42.066,117.41 40.945,118.968 40.945,122.35 C40.945,125.713 42.066,127.29 44.308,127.29 C46.531,127.29 47.652,125.713 47.652,122.35 C47.652,118.968 46.531,117.41 44.308,117.41 Z M61.237,117.41 L61.237,115.7 L51.566,115.7 L51.566,119.576 L53.542,119.576 L53.561,117.714 L58.729,117.714 L53.561,129 L55.936,129 L61.237,117.41 Z M68.267,115.643 C71.896,115.643 73.91,118.037 73.91,122.35 C73.91,126.663 71.896,129.057 68.267,129.057 C64.619,129.057 62.605,126.663 62.605,122.35 C62.605,118.037 64.619,115.643 68.267,115.643 Z M68.267,117.41 C66.025,117.41 64.904,118.968 64.904,122.35 C64.904,125.713 66.025,127.29 68.267,127.29 C70.49,127.29 71.611,125.713 71.611,122.35 C71.611,118.968 70.49,117.41 68.267,117.41 Z M85.196,117.41 L85.196,115.7 L75.525,115.7 L75.525,119.576 L77.501,119.576 L77.52,117.714 L82.688,117.714 L77.52,129 L79.895,129 L85.196,117.41 Z" id="#070707" fill="#070707"></path>
                    <path d="M316.374,120.735 L315.956,124.079 L318.616,124.079 L318.464,125.713 L315.766,125.713 L315.348,129 L313.752,129 L314.151,125.713 L310.788,125.713 L310.37,129 L308.774,129 L309.173,125.713 L306.513,125.713 L306.665,124.079 L309.382,124.079 L309.781,120.735 L307.14,120.735 L307.292,119.101 L309.99,119.101 L310.408,115.7 L312.023,115.7 L311.605,119.101 L314.968,119.101 L315.386,115.7 L317.001,115.7 L316.583,119.101 L319.224,119.101 L319.091,120.735 L316.374,120.735 Z M314.759,120.735 L311.396,120.735 L310.978,124.079 L314.36,124.079 L314.759,120.735 Z M324.924,129.095 C323.613,129.095 322.036,128.696 320.953,128.088 L321.827,126.397 C322.644,126.929 323.765,127.233 324.772,127.233 C327.356,127.233 328.553,125.295 328.477,122.426 C327.774,123.661 326.52,124.307 324.848,124.307 C322.188,124.307 320.573,122.654 320.573,120.07 C320.573,117.315 322.416,115.605 325.247,115.605 C328.61,115.605 330.662,117.999 330.662,122.084 C330.662,126.321 328.439,129.095 324.924,129.095 Z M325.266,122.54 C327.071,122.54 328.135,121.381 328.116,120.013 C328.135,118.854 327.28,117.543 325.361,117.543 C323.746,117.543 322.663,118.474 322.663,120.089 C322.663,121.609 323.651,122.54 325.266,122.54 Z M333.208,115.7 L338.984,115.7 C341.739,115.7 343.449,116.954 343.449,119.025 C343.449,120.526 342.556,121.647 341.112,121.989 C342.898,122.293 343.962,123.566 343.962,125.352 C343.962,127.632 342.119,129 339.117,129 L333.208,129 L333.208,115.7 Z M335.45,117.695 L335.45,121.21 L338.87,121.21 C340.295,121.21 341.15,120.545 341.15,119.424 C341.15,118.303 340.295,117.695 338.87,117.695 L335.45,117.695 Z M335.45,123.186 L335.45,127.005 L338.87,127.005 C340.618,127.005 341.663,126.321 341.663,125.067 C341.663,123.889 340.618,123.186 338.87,123.186 L335.45,123.186 Z M350.023,129.095 C348.712,129.095 347.135,128.696 346.052,128.088 L346.926,126.397 C347.743,126.929 348.864,127.233 349.871,127.233 C352.455,127.233 353.652,125.295 353.576,122.426 C352.873,123.661 351.619,124.307 349.947,124.307 C347.287,124.307 345.672,122.654 345.672,120.07 C345.672,117.315 347.515,115.605 350.346,115.605 C353.709,115.605 355.761,117.999 355.761,122.084 C355.761,126.321 353.538,129.095 350.023,129.095 Z M350.365,122.54 C352.17,122.54 353.234,121.381 353.215,120.013 C353.234,118.854 352.379,117.543 350.46,117.543 C348.845,117.543 347.762,118.474 347.762,120.089 C347.762,121.609 348.75,122.54 350.365,122.54 Z M358.307,115.7 L364.083,115.7 C366.838,115.7 368.548,116.954 368.548,119.025 C368.548,120.526 367.655,121.647 366.211,121.989 C367.997,122.293 369.061,123.566 369.061,125.352 C369.061,127.632 367.218,129 364.216,129 L358.307,129 L358.307,115.7 Z M360.549,117.695 L360.549,121.21 L363.969,121.21 C365.394,121.21 366.249,120.545 366.249,119.424 C366.249,118.303 365.394,117.695 363.969,117.695 L360.549,117.695 Z M360.549,123.186 L360.549,127.005 L363.969,127.005 C365.717,127.005 366.762,126.321 366.762,125.067 C366.762,123.889 365.717,123.186 363.969,123.186 L360.549,123.186 Z M375.122,129.095 C373.811,129.095 372.234,128.696 371.151,128.088 L372.025,126.397 C372.842,126.929 373.963,127.233 374.97,127.233 C377.554,127.233 378.751,125.295 378.675,122.426 C377.972,123.661 376.718,124.307 375.046,124.307 C372.386,124.307 370.771,122.654 370.771,120.07 C370.771,117.315 372.614,115.605 375.445,115.605 C378.808,115.605 380.86,117.999 380.86,122.084 C380.86,126.321 378.637,129.095 375.122,129.095 Z M375.464,122.54 C377.269,122.54 378.333,121.381 378.314,120.013 C378.333,118.854 377.478,117.543 375.559,117.543 C373.944,117.543 372.861,118.474 372.861,120.089 C372.861,121.609 373.849,122.54 375.464,122.54 Z M383.406,115.7 L389.182,115.7 C391.937,115.7 393.647,116.954 393.647,119.025 C393.647,120.526 392.754,121.647 391.31,121.989 C393.096,122.293 394.16,123.566 394.16,125.352 C394.16,127.632 392.317,129 389.315,129 L383.406,129 L383.406,115.7 Z M385.648,117.695 L385.648,121.21 L389.068,121.21 C390.493,121.21 391.348,120.545 391.348,119.424 C391.348,118.303 390.493,117.695 389.068,117.695 L385.648,117.695 Z M385.648,123.186 L385.648,127.005 L389.068,127.005 C390.816,127.005 391.861,126.321 391.861,125.067 C391.861,123.889 390.816,123.186 389.068,123.186 L385.648,123.186 Z" id="#9B9B9B" fill="#070707"></path>
                    <path d="M637.374,120.735 L636.956,124.079 L639.616,124.079 L639.464,125.713 L636.766,125.713 L636.348,129 L634.752,129 L635.151,125.713 L631.788,125.713 L631.37,129 L629.774,129 L630.173,125.713 L627.513,125.713 L627.665,124.079 L630.382,124.079 L630.781,120.735 L628.14,120.735 L628.292,119.101 L630.99,119.101 L631.408,115.7 L633.023,115.7 L632.605,119.101 L635.968,119.101 L636.386,115.7 L638.001,115.7 L637.583,119.101 L640.224,119.101 L640.091,120.735 L637.374,120.735 Z M635.759,120.735 L632.396,120.735 L631.978,124.079 L635.36,124.079 L635.759,120.735 Z M651.434,117.714 L651.453,115.7 L642.523,115.7 L642.523,129 L644.765,129 L644.765,123.547 L650.807,123.547 L650.807,121.552 L644.765,121.552 L644.765,117.714 L651.434,117.714 Z M656.792,129 L656.792,115.7 L651.947,115.7 L651.947,117.695 L654.55,117.695 L654.55,129 L656.792,129 Z M664.145,129 L664.145,115.7 L659.3,115.7 L659.3,117.695 L661.903,117.695 L661.903,129 L664.145,129 Z M677.065,117.714 L677.084,115.7 L668.154,115.7 L668.154,129 L670.396,129 L670.396,123.547 L676.438,123.547 L676.438,121.552 L670.396,121.552 L670.396,117.714 L677.065,117.714 Z M682.48,129.095 C681.169,129.095 679.592,128.696 678.509,128.088 L679.383,126.397 C680.2,126.929 681.321,127.233 682.328,127.233 C684.912,127.233 686.109,125.295 686.033,122.426 C685.33,123.661 684.076,124.307 682.404,124.307 C679.744,124.307 678.129,122.654 678.129,120.07 C678.129,117.315 679.972,115.605 682.803,115.605 C686.166,115.605 688.218,117.999 688.218,122.084 C688.218,126.321 685.995,129.095 682.48,129.095 Z M682.822,122.54 C684.627,122.54 685.691,121.381 685.672,120.013 C685.691,118.854 684.836,117.543 682.917,117.543 C681.302,117.543 680.219,118.474 680.219,120.089 C680.219,121.609 681.207,122.54 682.822,122.54 Z M695.666,115.605 C696.977,115.605 698.554,116.004 699.637,116.612 L698.763,118.303 C697.946,117.771 696.825,117.467 695.818,117.467 C693.234,117.467 692.037,119.405 692.113,122.274 C692.816,121.039 694.07,120.393 695.742,120.393 C698.402,120.393 700.017,122.046 700.017,124.63 C700.017,127.385 698.174,129.095 695.343,129.095 C691.98,129.095 689.928,126.701 689.928,122.616 C689.928,118.379 692.151,115.605 695.666,115.605 Z M695.324,122.16 C693.519,122.16 692.455,123.319 692.474,124.687 C692.455,125.846 693.31,127.157 695.229,127.157 C696.844,127.157 697.927,126.226 697.927,124.611 C697.927,123.091 696.939,122.16 695.324,122.16 Z" id="#F11F96" fill="#070707"></path>
                </g>
            </g>
        </g>
    </g>
</svg>