<svg width="331" height="382" xmlns="http://www.w3.org/2000/svg">
  <g fill="none" fill-rule="evenodd">
    <path fill="#FFF" d="M1 0h330v380.446H1z"/>
    <path d="M182.914 183.396l47.004-28.124m0 0L165 114.972m0 0l8.875-4.972m0 0l73.462 45.272m-64.752 38.414l64.752-38.414m.33 11.146v-11.146m-73.957 54.361l74.285-43.728m-74.285 43.728v-78.54m0 0l47.661 29.323m-47.66 49.217L165 204.66m0 0v-89.687m17.585 21.778v56.935M18.914 354.396l47.004-28.124m0 0L1 285.972m0 0L9.875 281m0 0l73.462 45.272m-64.752 38.414l64.752-38.414m.33 11.146v-11.146M9.71 380.633l74.285-43.728M9.71 380.633v-78.54m0 0l47.661 29.323m-47.66 49.217L1 375.66m0 0v-89.687m17.585 21.778v56.935" stroke="#f5f5f5" stroke-width="1.5"/>
  </g>
</svg>
