<svg width="331" height="382" xmlns="http://www.w3.org/2000/svg">
  <g fill="none" fill-rule="evenodd">
    <path fill="#FFF" d="M1 0h330v380.446H1z"/>
    <path d="M219.646 129.704L172.541 111 165 115.56l47.335 18.623 7.311-4.48zm-7.31 4.534v9.508-9.508zm0 9.48l7.31-4.88v-9.066m-38.324 19.01l-.003 45.581 31.016-20.207v-22.461l7.317-5.1-.006 32.573-46.656 30.564-.02-64.23 8.352 3.28zm-8.332 60.95l-7.99-3.195v-73.52l16.254 6.51M172.97 128.2l-7.97 4.816 7.97-4.816zm8.566 57.3l22.462-14.508V157.53l-6.741-2.613m15.078 19.24l-8.337-3.153 8.337 3.152zm-31.013-25.375l-.029-17.258.029 17.258zm8.288-13.986v45.487-45.487zm7.474 2.946l.024 37.67-.024-37.67zm.173 7.918l15.078 6.06-15.078-6.06zm-7.636-10.853l30.031 11.788-30.03-11.788zM165 125.034l16.293 6.49-16.293-6.49zm0-9.475V125v-9.44zM55.646 300.785L8.541 282.081 1 286.641l47.335 18.623 7.311-4.479zm-7.31 4.534v9.509-9.509zm0 9.48l7.31-4.879v-9.066m-38.324 19.009l-.003 45.581 31.016-20.206v-22.462l7.317-5.1-.006 32.573L8.99 380.813l-.02-64.23 8.352 3.28zm-8.332 60.95L1 377.619v-73.521l16.254 6.51M8.97 299.28L1 304.098l7.97-4.817zm8.566 57.3l22.462-14.508v-13.461l-6.741-2.614m15.078 19.24l-8.337-3.153 8.337 3.153zm-31.013-25.375l-.029-17.257.029 17.257zm8.288-13.985v45.486-45.486zm7.474 2.946l.024 37.67-.024-37.67zm.173 7.917l15.078 6.06-15.078-6.06zm-7.636-10.853l30.031 11.789-30.03-11.789zM1 296.115l16.293 6.49L1 296.116zm0-9.474v9.44-9.44z" stroke="#f5f5f5" stroke-width="1.5" stroke-linecap="round" stroke-linejoin="round"/>
  </g>
</svg>
