<?xml version="1.0" encoding="UTF-8"?>
<svg width="476px" height="320px" viewBox="0 0 476 320" version="1.1" xmlns="http://www.w3.org/2000/svg" xmlns:xlink="http://www.w3.org/1999/xlink">
    <!-- Generator: Sketch 43.2 (39069) - http://www.bohemiancoding.com/sketch -->
    <title>Wireframes</title>
    <desc>Created with Sketch.</desc>
    <defs>
        <polygon id="path-1" points="49.2130276 0.26603836 0.325820519 320.126878 214.941964 320.126878 214.941964 0.26603836"></polygon>
        <linearGradient x1="50%" y1="3.20073342%" x2="50%" y2="100%" id="linearGradient-3">
            <stop stop-color="#1AA4CD" offset="0%"></stop>
            <stop stop-color="#00D1FF" offset="100%"></stop>
        </linearGradient>
    </defs>
    <g id="Actual" stroke="none" stroke-width="1" fill="none" fill-rule="evenodd">
        <g id="Wireframes">
            <rect id="frame" fill="#FFFFFF" x="0.311590608" y="1" width="476" height="320"></rect>
            <g id="X" stroke="#979797" stroke-linecap="square">
                <path d="M0.811590608,317.5 L473.811591,0.5" id="Line"></path>
                <path d="M1.07168281,318.5 L473.811591,0.5" id="Line" transform="translate(237.311591, 159.500000) scale(-1, 1) translate(-237.311591, -159.500000) "></path>
            </g>
            <g id="Mi" transform="translate(261.058036, 0.733962)">
                <mask id="mask-2" fill="white">
                    <use xlink:href="#path-1"></use>
                </mask>
                <g id="Mask"></g>
                <g id="Mi-artwork" mask="url(#mask-2)">
                    <g transform="translate(-64.000000, -16.000000)">
                        <rect id="background" fill="url(#linearGradient-3)" x="5.68434189e-14" y="0" width="294" height="357.651248"></rect>
                        <rect id="Rectangle-2" fill="#FFFFFF" x="183" y="48" width="131" height="131"></rect>
                        <polygon id="Triangle" fill="#FFFFFF" transform="translate(235.500000, 244.287958) scale(-1, 1) translate(-235.500000, -244.287958) " points="343 179 343 309.575916 128 309.575916"></polygon>
                    </g>
                </g>
            </g>
            <rect id="frame" stroke="#979797" x="0.5" y="0.5" width="475" height="319"></rect>
        </g>
    </g>
</svg>