<svg width="564" height="739" xmlns="http://www.w3.org/2000/svg">
  <g stroke="#000" stroke-width="4" fill="none" fill-rule="evenodd">
    <path d="M561.783 247.87c-.907 26.916-4.95 51.14-12.13 72.676-7.2 21.532-16.172 41.279-26.947 59.213-10.782 17.954-23.142 34.546-37.056 49.793a4004.025 4004.025 0 0 1-42.437 45.756c-23.01 24.223-43.582 48.237-61.729 71.998-18.146 23.784-27.2 50.929-27.2 81.422v67.288H235.718v-69.98c0-31.4 6.063-60.563 18.19-87.482 12.125-26.915 28.967-51.574 50.525-74.012a3580.248 3580.248 0 0 1 43.788-45.76c15.705-16.145 30.32-32.967 43.789-50.462 13.477-17.495 24.696-35.433 33.687-53.834 8.965-18.378 13.474-37.009 13.474-55.845 0-13.458-2.021-28.475-6.063-45.083-4.042-16.597-11.916-32.512-23.583-47.775-11.682-15.246-27.41-28.031-47.153-38.358-19.77-10.303-45.366-15.472-76.802-15.472-27.85 0-51.873 6.285-72.083 18.837-20.21 12.574-37.286 27.821-51.2 45.756-13.936 17.957-24.485 36.335-31.662 55.18-7.2 18.836-11.686 34.99-13.477 48.447L2.624 259.983C13.406 216.035 28.437 177.7 47.76 145.029c19.306-32.683 41.978-59.447 68.044-80.263 26.04-20.82 54.564-36.34 85.557-46.534C232.35 8.05 264.9 2.942 299.043 2.942c39.517 0 75.451 6.205 107.792 18.608 32.336 12.407 59.953 29.486 82.857 51.186 22.905 21.722 40.635 47.583 53.22 77.61 12.574 30.027 18.871 62.535 18.871 97.525M2.624 259.983l72.823 62.994M117.506 279.845l72.823 62.994"/>
    <path d="M75.448 322.978l114.882 19.86s31.636-127.952 106.783-127.987c64.07-.027 50.837 63.095 32.033 90.473C292.97 358.011 223.473 408.477 190.33 476.71c-19.201 39.54-58.913 139.756-36.413 259.19l81.799-39.886M153.918 735.9l126.218-.85M354.93 695.654l-74.793 39.396"/>
  </g>
</svg>
