<svg width="152" height="267" viewBox="0 0 152 267" preserveAspectRatio="xMidYMid meet" xmlns="http://www.w3.org/2000/svg">
  <g fill="none" fill-rule="evenodd">
    <path fill="#FFF0B3" d="M3.344 40.534L46.042 57.75l.345 138.42 24.104-14.806V66.703l58.537 22.725.345-25.136L3.689 15.398z"/>
    <path fill="#FFF0B3" d="M3.689 61.538l42.353 15.839v25.136l-22.037-8.264v168.72L3 255.05zM90.462 120.073l14.463 5.854-.345 34.433 24.793 9.296-.345-59.224-38.566-15.15z"/>
    <path fill="#AC9222" d="M3.689 61.538L23.66 48.453l22.382 8.953v19.97zM3.344 15.398L22.972 3.002l125.684 49.583-19.283 12.052zM90.462 95.282l-.344-21.348 58.538 24.102-19.628 12.396zM46.387 196.17l58.193-35.81 24.793 9.296-82.642 53.027z"/>
    <path fill="#E5C22E" d="M129.373 64.637l19.283-12.052v24.103l-19.628 12.74zM129.028 110.432l19.628-12.396v85.394L24.005 262.97V94.248l22.037 8.264.69 120.17 82.64-53.027z"/>
    <path fill="#E5C22E" d="M70.49 66.703l19.628 7.92-.344 94-19.283 12.74z"/>
    <path stroke="#000" stroke-width="3" stroke-linecap="round" stroke-linejoin="round" d="M148.854 52.003L23.006 3.345 3.344 15.587l126.063 48.335 19.447-11.23M129.373 64.637v25.136"/>
    <g stroke-linecap="round" stroke-width="3" stroke="#000" stroke-linejoin="round">
      <path d="M129.407 89.804l19.447-12.834.031-24.213M46.483 102.811l-.01 120.45 83.416-53.432-.172-59.397 19.272-12.475-.306 85.535-124.477 80.385-.055-169.737z"/>
      <path d="M24.206 263.876l-20.862-8.14L3.497 61.2l42.42 16.554M23.66 48.798L3.497 61.2"/>
    </g>
    <path stroke="#000" stroke-width="3" stroke-linecap="round" stroke-linejoin="round" d="M46.475 196.805l58.45-36.73v-34.413l-14.15-5.522M129.863 169.868l-25.334-9.66M46.516 102.811l-.108-44.716M70.49 67.047v114.66M90.118 74.967v94M148.854 97.7L90.29 74.45M90.864 95.294l38.543 15.28M70.66 66.989l19.63 7.461"/>
    <g stroke="#000" stroke-width="3" stroke-linecap="round" stroke-linejoin="round">
      <path d="M3.344 40.611l43.064 16.972M3.344 15.742v24.792"/>
    </g>
  </g>
</svg>
